<?xml version="1.0" standalone="no"?>
<!DOCTYPE svg PUBLIC "-//W3C//DTD SVG 20010904//EN"
 "http://www.w3.org/TR/2001/REC-SVG-20010904/DTD/svg10.dtd">
<svg version="1.0" xmlns="http://www.w3.org/2000/svg"
 width="48.000000pt" height="48.000000pt" viewBox="0 0 48.000000 48.000000"
 preserveAspectRatio="xMidYMid meet">

<g transform="translate(0.000000,48.000000) scale(0.100000,-0.100000)"
fill="#000000" stroke="none">
<path d="M138 394 c-69 -39 -95 -59 -91 -69 3 -8 7 -15 10 -15 2 0 45 22 94
50 l90 49 89 -49 c48 -28 90 -50 93 -50 3 0 7 7 10 15 5 10 -22 30 -92 70 -55
30 -101 55 -102 55 -2 -1 -48 -25 -101 -56z"/>
<path d="M250 315 c-8 -9 -8 -15 -2 -15 12 0 26 19 19 26 -2 2 -10 -2 -17 -11z"/>
<path d="M97 264 c-4 -4 -7 -54 -7 -111 l0 -103 30 0 c28 0 30 2 30 40 0 33 3
40 20 40 17 0 20 7 20 40 l0 40 50 0 50 0 0 -40 c0 -33 3 -40 20 -40 17 0 20
-7 20 -40 0 -38 2 -40 30 -40 l31 0 -3 108 -3 107 -141 3 c-77 1 -143 -1 -147
-4z"/>
</g>
</svg>
